<svg width="17" height="16" viewBox="0 0 17 16" fill="none" xmlns="http://www.w3.org/2000/svg">
<path d="M16.2133 5.41518L11.1905 4.71356L8.94521 0.338455C8.88388 0.218667 8.78299 0.121696 8.65836 0.0627531C8.3458 -0.0855557 7.96598 0.0380349 7.80969 0.338455L5.56438 4.71356L0.541613 5.41518C0.403136 5.43419 0.276528 5.49694 0.179594 5.59201C0.062406 5.70778 -0.00216996 5.86353 5.56796e-05 6.02504C0.00228132 6.18654 0.0711264 6.34059 0.191463 6.45334L3.8255 9.85874L2.96694 14.6674C2.94681 14.7792 2.95969 14.8943 3.00412 14.9994C3.04855 15.1046 3.12275 15.1957 3.21832 15.2625C3.31388 15.3292 3.42698 15.3688 3.54479 15.3769C3.6626 15.385 3.78041 15.3611 3.88485 15.3081L8.37745 13.0379L12.8701 15.3081C12.9927 15.3709 13.1351 15.3918 13.2716 15.369C13.6159 15.3119 13.8473 14.9982 13.788 14.6674L12.9294 9.85874L16.5634 6.45334C16.6624 6.36017 16.7276 6.23848 16.7474 6.10538C16.8008 5.77264 16.5595 5.46461 16.2133 5.41518Z" fill="#FDC720"/>
</svg>
