<svg width="71" height="20" viewBox="0 0 71 20" fill="none" xmlns="http://www.w3.org/2000/svg">
<g clip-path="url(#clip0_101_1096)">
<path d="M18.2891 0H21.4891V20H18.2891V0ZM32.6891 13.62C32.6891 16.6808 30.1155 16.9248 29.3499 16.9248C27.4371 16.9248 27.0891 15.1344 27.0891 14.0544V6.4H23.8891V14.0384C23.8891 15.9344 24.4843 17.4992 25.5275 18.5424C26.4491 19.4648 27.8299 19.9688 29.3259 19.9688C30.3867 19.9688 31.8891 19.6384 32.6891 18.908V20H35.8891V6.4H32.6891V13.62ZM42.2891 1.6H39.0891V6.4H36.6891V9.6H39.0891V20H42.2891V9.6H44.6891V6.4H42.2891V1.6ZM54.7667 15.9336C54.0699 16.56 53.1499 16.9072 52.1403 16.9072C49.9147 16.9072 48.2803 15.2728 48.2803 13.0288C48.2803 10.7848 49.8627 9.2192 52.1403 9.2192C53.1323 9.2192 54.0699 9.5496 54.7843 10.176L55.2699 10.5936L57.4275 8.4368L56.8875 7.9496C55.6179 6.8032 53.9323 6.16 52.1395 6.16C48.1395 6.16 45.2347 9.0464 45.2347 13.012C45.2347 16.9608 48.2091 19.9504 52.1395 19.9504C53.9659 19.9504 55.6691 19.3072 56.9227 18.1424L57.4443 17.6552L55.2531 15.5L54.7667 15.9336ZM68.8491 7.5856C67.9275 6.664 66.8475 6.16 65.3515 6.16C64.2907 6.16 63.0891 6.4904 62.2891 7.22V0H59.0891V20H62.2891V12.508C62.2891 9.4472 64.4635 9.204 65.2291 9.204C67.1419 9.204 67.0891 10.9952 67.0891 12.0736V20H70.2891V12.0904C70.2891 10.1944 69.8931 8.6296 68.8491 7.5856Z" fill="white"/>
<path d="M52.0343 10.7504C52.6479 10.7504 53.2364 10.9941 53.6703 11.428C54.1041 11.8619 54.3479 12.4504 54.3479 13.064C54.3479 13.6776 54.1041 14.266 53.6703 14.6999C53.2364 15.1338 52.6479 15.3776 52.0343 15.3776C51.4207 15.3776 50.8322 15.1338 50.3983 14.6999C49.9645 14.266 49.7207 13.6776 49.7207 13.064C49.7207 12.4504 49.9645 11.8619 50.3983 11.428C50.8322 10.9941 51.4207 10.7504 52.0343 10.7504Z" fill="#FF3D2E"/>
<path d="M13.8088 14.9767C12.592 16.2287 10.9392 16.9071 9.2 16.9071C5.6352 16.9071 3.0432 14.1071 3.0432 10.2639C3.0432 6.40314 5.6352 3.60314 9.2 3.60314C10.9224 3.60314 12.5568 4.28074 13.792 5.51594L14.2784 6.00314L16.4176 3.86394L15.948 3.37674C14.1744 1.55034 11.7744 0.559937 9.2 0.559937C3.948 0.559937 0 4.73354 0 10.2807C0 15.8111 3.9656 19.9679 9.2 19.9679C11.792 19.9679 14.192 18.9599 15.9656 17.1335L16.4352 16.6463L14.3136 14.4727L13.8088 14.9767Z" fill="white"/>
</g>
<defs>
<clipPath id="clip0_101_1096">
<rect width="70.2888" height="20" fill="white"/>
</clipPath>
</defs>
</svg>
